<svg xmlns="http://www.w3.org/2000/svg" xmlns:xlink="http://www.w3.org/1999/xlink" version="1.1" style="enable-background:new 0 0 460 460;" xml:space="preserve" width="460" height="460"><rect id="backgroundrect" width="100%" height="100%" x="0" y="0" fill="none" stroke="none"/>
















<g class="currentLayer" style=""><title>Layer 1</title><g id="svg_1" class="" fill="#002d5c" fill-opacity="1" stroke="#870000" stroke-opacity="1" stroke-width="2" filter="" stroke-dasharray="none">
	<path d="M362.4647977380753,238.591 c-0.7080000000000001,-0.24000000000000002 -17.587,-5.893 -39.831,-5.893 c-29.925,0 -55.528,10.243 -74.04,29.621 c-3.079,3.222 -3.653,8.092 -1.4100000000000001,11.943 c11.672,20.03 33.428,32.473 56.777,32.473 c4.458,0 8.95,-0.457 13.35,-1.357 c27.829,-5.696 48.674,-28.274 51.869,-56.181 C369.71579773807525,244.521 366.91979773807526,240.106 362.4647977380753,238.591 zM313.30079773807523,285.784 c-3.083,0.6310000000000001 -6.225,0.9510000000000001 -9.339,0.9510000000000001 c-13.603,0 -26.417,-6.045 -34.987,-16.162 c14.111,-11.868 32.121,-17.875 53.659,-17.875 c10.024,0 18.828,1.365 24.875,2.6430000000000002 C342.64379773807525,270.64 329.7267977380753,282.422 313.30079773807523,285.784 z" id="svg_2" fill="#002d5c" fill-opacity="1" stroke="#870000" stroke-opacity="1" stroke-width="2" filter="" stroke-dasharray="none"/>
	<path d="M138.48979773807525,232.698 c-22.24,0 -39.123,5.652 -39.83,5.893 c-4.456,1.5150000000000001 -7.252,5.93 -6.7170000000000005,10.605 c3.195,27.908 24.04,50.485 51.869,56.181 c4.4,0.901 8.892,1.357 13.35,1.357 c23.35,0 45.105,-12.443 56.777,-32.473 c2.244,-3.85 1.669,-8.72 -1.4100000000000001,-11.943 C194.01779773807525,242.941 168.41479773807526,232.698 138.48979773807525,232.698 zM157.16179773807525,286.735 c-3.114,0 -6.257,-0.32000000000000006 -9.339,-0.9510000000000001 c-16.43,-3.363 -29.35,-15.152 -34.213,-30.458 c6.016,-1.274 14.784,-2.628 24.88,-2.628 c21.538,0 39.548,6.007 53.659,17.875 C183.57979773807526,280.689 170.76479773807526,286.735 157.16179773807525,286.735 z" id="svg_3" fill="#002d5c" fill-opacity="1" stroke="#870000" stroke-opacity="1" stroke-width="2" filter="" stroke-dasharray="none"/>
	<path d="M454.11179773807527,81.567 c-3.88,-1.474 -8.271,-0.3960000000000001 -11.03,2.7110000000000003 l-64.564,72.748 c-4.751,-6.322 -9.867,-12.35 -15.356,-18.037 c-17.534,-18.166 -38.016,-32.361 -60.876,-42.193 C279.41479773807526,86.96 255.28279773807526,81.972 230.56179773807526,81.972 s-48.853,4.9879999999999995 -71.724,14.824 c-22.861,9.832 -43.342,24.028 -60.876,42.193 c-5.489,5.687 -10.604,11.715 -15.356,18.037 L18.040797738075256,84.278 c-2.757,-3.106 -7.146,-4.185 -11.03,-2.7110000000000003 C3.1287977380752565,83.042 0.5617977380752563,86.763 0.5617977380752563,90.916 v97.65 c0,2.944 1.2970000000000002,5.738 3.545,7.638 l43.036,36.368 c-4.635,18.639 -7.032,38.305 -7.032,58.608 c0,25.622 3.668,51.657000000000004 10.902,77.381 c1.031,3.665 4.053,6.427 7.796,7.124 c12.116,2.2560000000000002 23.766000000000002,3.4 34.626,3.4 c42.61,0 68.875,-17.529 89.98,-31.614 c16.603,-11.08 29.716,-19.831 47.146,-19.831 s30.546,8.752 47.151,19.832 c21.106,14.083 47.374,31.61 89.974,31.613 c0.004000000000000001,0 0.006000000000000002,0 0.010000000000000002,0 c10.854,0 22.502,-1.1440000000000001 34.617,-3.4 c3.7430000000000003,-0.6970000000000002 6.765000000000001,-3.459 7.796,-7.124 c7.234,-25.724 10.902,-51.759 10.902,-77.381 c0,-20.302 -2.3970000000000002,-39.969 -7.032,-58.608 l43.036,-36.368 c2.249,-1.9 3.545,-4.694 3.545,-7.638 v-97.65 C460.56179773807526,86.763 457.99479773807525,83.042 454.11179773807527,81.567 zM20.561797738075256,183.924 v-20.28 l12.313,12.14 c1.948,1.921 4.485,2.879 7.021,2.879 c2.583,0 5.165,-0.995 7.122,-2.979 c3.8770000000000002,-3.933 3.833,-10.264 -0.1,-14.142 L20.561797738075256,135.557 v-18.308 l50.514,56.917 c-7.046,11.752 -12.953,24.313 -17.651,37.53 L20.561797738075256,183.924 zM392.49279773807524,357.071 c-8.678,1.3370000000000002 -16.995,2.013 -24.795,2.013 c-0.003000000000000001,0 -0.006000000000000002,0 -0.009000000000000003,0 c-36.541,-0.0020000000000000005 -58.062,-14.362 -78.875,-28.249 C270.93679773807526,318.907 254.05179773807527,307.64 230.56179773807526,307.64 c-23.491,0 -40.373,11.267 -58.248,23.195 c-20.811,13.888 -42.33,28.249 -78.878,28.249 c-7.806,0 -16.126,-0.6760000000000002 -24.805,-2.013 c-5.655,-21.974 -8.519,-44.108 -8.519,-65.892 c0,-20.893 2.544,-40.146 7.163,-57.721000000000004 c0.6090000000000001,-1.204 0.9550000000000001,-2.495 1.046,-3.799 c5.178,-18.242 12.619,-34.619 21.802,-49.067 c0.005000000000000001,-0.004000000000000001 0.010000000000000002,-0.008000000000000002 0.015000000000000003,-0.012000000000000002 c1.367,-1.213 2.313,-2.7190000000000003 2.847,-4.338 c33.048,-48.733 86.307,-74.27 137.576,-74.27 s104.528,25.537 137.576,74.27 c0.534,1.6190000000000002 1.481,3.125 2.847,4.338 c0.005000000000000001,0.004000000000000001 0.010000000000000002,0.008000000000000002 0.015000000000000003,0.012000000000000002 c9.184,14.448 16.624,30.825 21.802,49.067 c0.09100000000000003,1.304 0.43700000000000006,2.596 1.046,3.799 c4.62,17.575 7.163,36.828 7.163,57.721000000000004 C401.01179773807524,312.963 398.14779773807527,335.098 392.49279773807524,357.071 zM407.69879773807526,211.695 c-4.698,-13.216 -10.604,-25.778 -17.651,-37.53 L440.56179773807526,117.249 v18.308 l-26.355,25.985 c-3.933,3.878 -3.9779999999999998,10.209 -0.1,14.142 c1.957,1.9849999999999999 4.538,2.979 7.122,2.979 c2.535,0 5.072,-0.9580000000000001 7.021,-2.879 L440.56179773807526,163.643 v20.28 L407.69879773807526,211.695 z" id="svg_4" fill="#002d5c" fill-opacity="1" stroke="#870000" stroke-opacity="1" stroke-width="2" filter="" stroke-dasharray="none"/>
	<path d="M254.64479773807525,210.132 c1.534,3.965 5.318,6.394 9.329,6.394 c1.2,0 2.42,-0.21800000000000003 3.606,-0.6770000000000002 c5.15,-1.9929999999999999 7.71,-7.784 5.7170000000000005,-12.935 l-25.402,-65.649 c-1.491,-3.8520000000000003 -5.196,-6.391 -9.326,-6.391 h-16.013 c-4.13,0 -7.835,2.539 -9.326,6.391 l-25.402,65.649 c-1.9929999999999999,5.151 0.5670000000000001,10.942 5.7170000000000005,12.935 c5.15,1.9929999999999999 10.942,-0.5670000000000001 12.935,-5.718 l8.237,-21.288 h31.69 L254.64479773807525,210.132 zM222.45579773807526,168.843 l6.953,-17.969 h2.307 l6.953,17.969 H222.45579773807526 z" id="svg_5" fill="#002d5c" fill-opacity="1" stroke="#870000" stroke-opacity="1" stroke-width="2" filter="" stroke-dasharray="none"/>
</g><g id="svg_6">
</g><g id="svg_7">
</g><g id="svg_8">
</g><g id="svg_9">
</g><g id="svg_10">
</g><g id="svg_11">
</g><g id="svg_12">
</g><g id="svg_13">
</g><g id="svg_14">
</g><g id="svg_15">
</g><g id="svg_16">
</g><g id="svg_17">
</g><g id="svg_18">
</g><g id="svg_19">
</g><g id="svg_20">
</g></g><defs><filter id="f205" xmlns:inkscape="http://www.inkscape.org/namespaces/inkscape" inkscape:label="Clean edges" inkscape:menu="ABCs" inkscape:menu-tooltip="Removes or decreases glows and jaggeries around objects edges after applying some filters" height="1" width="1" y="0" x="0" color-interpolation-filters="sRGB">
            <feGaussianBlur result="result6" stdDeviation=".4"/>
            <feComposite in2="result6" operator="in" in="SourceGraphic" result="result7"/>
            <feComposite operator="in" in2="result7" result="result8" in="result7"/>
        </filter><radialGradient id="svg_21" spreadMethod="pad"><stop stop-color="#ffd2a3" stop-opacity="1" offset="0"/><stop stop-color="#002d5c" stop-opacity="1" offset="1"/><stop stop-color="#002d5c" stop-opacity="1" offset="1"/></radialGradient><linearGradient id="svg_22"><stop stop-color="#ffffff" stop-opacity="1" offset="0"/><stop stop-color="0" stop-opacity="0" offset="0.4765625"/><stop stop-color="#000000" stop-opacity="1" offset="0.765625"/></linearGradient></defs></svg>